<svg xmlns="http://www.w3.org/2000/svg" xmlns:xlink="http://www.w3.org/1999/xlink" viewBox="0,0,256,256" width="48px" height="48px" fill-rule="nonzero"><g fill="#0074ca" fill-rule="nonzero" stroke="none" stroke-width="1" stroke-linecap="butt" stroke-linejoin="miter" stroke-miterlimit="10" stroke-dasharray="" stroke-dashoffset="0" font-family="none" font-weight="none" font-size="none" text-anchor="none" style="mix-blend-mode: normal"><g transform="scale(5.33333,5.33333)"><path d="M24.53516,3.30078c-0.2575,-0.00375 -0.51609,0.05945 -0.74609,0.18945l-18.01953,10c-0.47,0.26 -0.76953,0.76055 -0.76953,1.31055v18.39844c0,0.55 0.29953,1.05055 0.76953,1.31055l5.63086,3.12109l2.23047,1.23828l1.79883,1l13.19531,-7.91602c0.80664,0.67405 1.82381,1.04443 2.875,1.04688c2.48528,0 4.5,-2.01472 4.5,-4.5c0,-2.48528 -2.01472,-4.5 -4.5,-4.5c-0.21583,0.0021 -0.43123,0.01972 -0.64453,0.05273c-2.64466,-2.9061 -5.8641,-4.39024 -8.48828,-5.14453l14.39258,-8.63867l-2.05078,-1.20703l0.00195,-0.00195l-9.43164,-5.55078c-0.23,-0.135 -0.48664,-0.20523 -0.74414,-0.20898zM24.49023,6.5293l5.42383,3.1875l-10.53906,6.32813c-0.80691,-0.67334 -1.82405,-1.04302 -2.875,-1.04492c-2.48528,0 -4.5,2.01472 -4.5,4.5c0,2.48528 2.01472,4.5 4.5,4.5c1.31583,-0.00226 2.56474,-0.58033 3.41797,-1.58203c2.09362,0.42412 5.15337,1.46077 7.62305,3.95313c-0.31467,0.58459 -0.49609,1.23156 -0.53125,1.89453l-12.64258,7.58594l-6.36719,-3.53125v-16.64062zM39.69922,12.00977l-2.91992,1.75l3.2207,1.90039v16.67969l-15.50977,9.13086l-3.06055,-1.70117l-2.96875,1.78125l5.32812,2.95898c0.22,0.13 0.4707,0.18945 0.7207,0.18945c0.27,0 0.52953,-0.06898 0.76953,-0.20898l16.98047,-10c0.46,-0.27 0.74023,-0.76102 0.74023,-1.29102v-18.39844c0,-0.53 -0.28023,-1.02102 -0.74023,-1.29101z"></path></g></g></svg>